# xmcd
#
# Track frame offsets: 
#        150
#        16049
#        30409
#        50434
#        66004
#        80981
#        99256
#        118816
#        140437
#        160394
#
# Disc length: 2517 seconds
#
# Revision: 4
# Processed by: cddbd v1.5.2PL0 Copyright (c) Steve Scherf et al.
# Submitted via: ExactAudioCopy v1.0b3
#
DISCID=7c09d30a
DTITLE=Magtens Korridorer - Milan Allé
DYEAR=2009
DGENRE=Rock
TTITLE0=Noget Om Helte
TTITLE1=Milan Allé
TTITLE2=Blå Løgne
TTITLE3=Engle
TTITLE4=En Kold Triumf
TTITLE5=Samvittighed
TTITLE6=En Sidste Chance Til
TTITLE7=Klar Besked
TTITLE8=Sidste Omgang
TTITLE9=Lyset Over Nørrebro
EXTD=
EXTT0=
EXTT1=
EXTT2=
EXTT3=
EXTT4=
EXTT5=
EXTT6=
EXTT7=
EXTT8=
EXTT9=
PLAYORDER=
